<svg width="564.8600219726562px" height="120.8px" xmlns="http://www.w3.org/2000/svg" viewBox="-32.430010986328114 14.600000000000001 564.8600219726562 120.8" style="background: rgba(0, 0, 0, 0);" preserveAspectRatio="xMidYMid"><defs><filter id="editing-extrusion" x="-100%" y="-100%" width="300%" height="300%"><feFlood result="color1" flood-color="#444"></feFlood><feConvolveMatrix order="8,8" divisor="1" kernelMatrix="1 0 0 0 0 0 0 0 0 1 0 0 0 0 0 0 0 0 1 0 0 0 0 0 0 0 0 1 0 0 0 0 0 0 0 0 1 0 0 0 0 0 0 0 0 1 0 0 0 0 0 0 0 0 1 0 0 0 0 0 0 0 0 1" in="SourceAlpha" result="extrude"></feConvolveMatrix><feComposite in="color1" in2="extrude" result="comp-extrude" operator="in"></feComposite><feOffset dx="4" dy="4" in="comp-extrude" result="offset-extrude"></feOffset><feMerge><feMergeNode in="offset-extrude"></feMergeNode><feMergeNode in="SourceGraphic"></feMergeNode></feMerge></filter></defs><g filter="url(#editing-extrusion)"><g transform="translate(53.38238334655762, 98.68000221252441)"><path d="M29.18 1.28L29.18 1.28L29.18 1.28Q20.99 1.28 20.22-10.37L20.22-10.37L9.22-10.37L9.22-10.37Q7.94-7.42 7.04-4.86L7.04-4.86L5.38 0L-3.58 0L16.58-42.24L30.34-42.24L33.02-11.14L33.02-11.14Q33.66-4.42 36.22-2.43L36.22-2.43L36.22-2.43Q34.37 1.28 29.18 1.28ZM14.72-23.17L11.20-15.04L20.03-15.04L19.26-31.49L19.26-33.22L14.72-23.17ZM59.97-17.98L59.97-17.98L59.97-17.98Q62.27-22.08 62.27-26.24L62.27-26.24L62.27-26.24Q62.27-28.99 60.29-28.99L60.29-28.99L60.29-28.99Q58.75-28.99 57.15-26.37L57.15-26.37L57.15-26.37Q55.49-23.74 54.98-20.35L54.98-20.35L51.65 0L38.40 1.28L44.93-32.64L55.49-33.92L54.34-27.46L54.34-27.46Q57.47-33.92 64.51-33.92L64.51-33.92L64.51-33.92Q68.22-33.92 70.24-32L70.24-32L70.24-32Q72.26-30.08 72.26-26.14L72.26-26.14L72.26-26.14Q72.26-22.21 69.66-19.71L69.66-19.71L69.66-19.71Q67.07-17.22 62.66-17.22L62.66-17.22L62.66-17.22Q60.74-17.22 59.97-17.98ZM100.35 1.28L100.35 1.28L100.35 1.28Q92.61 1.28 92.61-4.74L92.61-4.74L92.61-4.74Q92.67-6.40 93.18-9.22L93.18-9.22L94.34-15.10L94.34-15.10Q96.06-23.42 96.06-25.28L96.06-25.28L96.06-25.28Q96.06-28.99 93.89-28.99L93.89-28.99L93.89-28.99Q90.24-28.99 88.32-19.46L88.32-19.46L84.54 0L71.68 1.28L78.34-32.70L88.83-33.92L87.81-27.65L87.81-27.65Q90.82-33.92 100.03-33.92L100.03-33.92L100.03-33.92Q104.51-33.92 106.40-32.03L106.40-32.03L106.40-32.03Q108.29-30.14 108.29-25.92L108.29-25.92L108.29-25.92Q108.29-21.95 106.24-12.67L106.24-12.67L106.24-12.67Q105.28-8.51 105.28-6.94L105.28-6.94L105.28-6.94Q105.28-5.38 106.14-4.48L106.14-4.48L106.14-4.48Q107.01-3.58 108.29-3.46L108.29-3.46L108.29-3.46Q107.65-1.28 105.44 0L105.44 0L105.44 0Q103.23 1.28 100.35 1.28ZM116.19-1.92L116.19-1.92L116.19-1.92Q114.69-3.58 114.02-6.21L114.02-6.21L114.02-6.21Q113.34-8.83 113.34-13.12L113.34-13.12L113.34-13.12Q113.34-17.41 114.82-21.31L114.82-21.31L114.82-21.31Q116.29-25.22 118.98-28.03L118.98-28.03L118.98-28.03Q124.48-33.92 133.57-33.92L133.57-33.92L133.57-33.92Q136.83-33.92 139.20-32.83L139.20-32.83L150.14-33.92L145.41-8.96L145.41-8.96Q145.22-8.19 145.22-6.78L145.22-6.78L145.22-6.78Q145.22-5.38 146.08-4.48L146.08-4.48L146.08-4.48Q146.94-3.58 148.22-3.46L148.22-3.46L148.22-3.46Q147.58-1.28 145.25 0L145.25 0L145.25 0Q142.91 1.28 140.29 1.28L140.29 1.28L140.29 1.28Q137.66 1.28 135.90 0.29L135.90 0.29L135.90 0.29Q134.14-0.70 133.63-2.37L133.63-2.37L133.63-2.37Q132.61-0.77 130.43 0.26L130.43 0.26L130.43 0.26Q128.26 1.28 125.34 1.28L125.34 1.28L125.34 1.28Q122.43 1.28 120.06 0.51L120.06 0.51L120.06 0.51Q117.70-0.26 116.19-1.92ZM129.70-27.90L129.70-27.90L129.70-27.90Q128.96-26.75 128.32-24.80L128.32-24.80L128.32-24.80Q127.68-22.85 126.62-17.63L126.62-17.63L126.62-17.63Q125.57-12.42 125.57-8.70L125.57-8.70L125.57-8.70Q125.57-4.99 126.14-3.90L126.14-3.90L126.14-3.90Q126.72-2.82 127.74-2.82L127.74-2.82L127.74-2.82Q129.79-2.82 131.30-4.77L131.30-4.77L131.30-4.77Q132.80-6.72 133.38-10.18L133.38-10.18L136.77-28.93L136.77-28.93Q135.42-30.08 133.86-30.08L133.86-30.08L133.86-30.08Q132.29-30.08 131.36-29.57L131.36-29.57L131.36-29.57Q130.43-29.06 129.70-27.90ZM152.77-3.07L152.77-3.07L160.70-44.80L173.70-46.08L171.71-36.29L171.71-36.29Q171.01-33.28 170.11-31.17L170.11-31.17L170.11-31.17Q171.52-32.96 174.59-33.66L174.59-33.66L174.59-33.66Q175.49-33.92 176.58-33.92L176.58-33.92L176.58-33.92Q182.53-33.92 185.79-30.30L185.79-30.30L185.79-30.30Q189.06-26.69 189.06-19.71L189.06-19.71L189.06-19.71Q189.06-10.62 183.87-4.93L183.87-4.93L183.87-4.93Q178.30 1.28 168.19 1.28L168.19 1.28L168.19 1.28Q161.22 1.28 155.97-1.02L155.97-1.02L155.97-1.02Q154.11-1.86 152.77-3.07ZM169.02-22.40L165.63-3.65L165.63-3.65Q166.98-2.50 168.64-2.50L168.64-2.50L168.64-2.50Q170.30-2.50 171.26-3.14L171.26-3.14L171.26-3.14Q172.22-3.78 172.93-5.06L172.93-5.06L172.93-5.06Q174.85-8.51 176.38-19.07L176.38-19.07L176.38-19.07Q176.83-22.08 176.83-25.09L176.83-25.09L176.83-25.09Q176.83-28.10 176.16-29.06L176.16-29.06L176.16-29.06Q175.49-30.02 174.21-30.02L174.21-30.02L174.21-30.02Q170.30-30.02 169.02-22.40L169.02-22.40ZM232-20.61L244.93-21.76L244.93-21.76Q240.32-11.65 240.32 0.06L240.32 0.06L240.32 0.06Q238.59 1.28 236.06 1.28L236.06 1.28L236.06 1.28Q233.54 1.28 231.94 0.10L231.94 0.10L231.94 0.10Q230.34-1.09 230.02-2.30L230.02-2.30L230.02-2.30Q228.42-0.64 225.82 0.32L225.82 0.32L225.82 0.32Q223.23 1.28 220.48 1.28L220.48 1.28L220.48 1.28Q217.73 1.28 215.33 0.38L215.33 0.38L215.33 0.38Q212.93-0.51 211.07-2.50L211.07-2.50L211.07-2.50Q206.98-6.85 206.98-15.10L206.98-15.10L206.98-15.10Q206.98-27.90 213.82-35.58L213.82-35.58L213.82-35.58Q220.86-43.52 233.34-43.52L233.34-43.52L233.34-43.52Q241.98-43.52 245.06-39.04L245.06-39.04L245.06-39.04Q246.02-37.63 246.02-35.94L246.02-35.94L246.02-35.94Q246.02-34.24 245.28-32.80L245.28-32.80L245.28-32.80Q244.54-31.36 243.39-30.21L243.39-30.21L243.39-30.21Q240.64-27.65 237.25-27.65L237.25-27.65L237.25-27.65Q235.90-27.65 234.62-28.10L234.62-28.10L234.62-28.10Q234.88-30.02 234.88-32.26L234.88-32.26L234.88-32.26Q234.88-34.50 234.72-35.52L234.72-35.52L234.72-35.52Q234.56-36.54 234.18-37.38L234.18-37.38L234.18-37.38Q233.34-39.10 231.52-39.10L231.52-39.10L231.52-39.10Q229.70-39.10 227.68-37.15L227.68-37.15L227.68-37.15Q225.66-35.20 224.06-32L224.06-32L224.06-32Q220.54-24.83 220.54-16.19L220.54-16.19L220.54-16.19Q220.54-12.22 222.08-9.41L222.08-9.41L222.08-9.41Q223.74-6.34 226.69-6.34L226.69-6.34L226.69-6.34Q227.71-6.34 228.64-6.85L228.64-6.85L228.64-6.85Q229.57-7.36 229.95-7.74L229.95-7.74L232-20.61ZM280.26-7.10L280.26-7.10L280.26-7.10Q280.26-4.29 283.14-3.46L283.14-3.46L283.14-3.46Q282.43-1.09 279.68 0.19L279.68 0.19L279.68 0.19Q277.38 1.28 274.85 1.28L274.85 1.28L274.85 1.28Q272.32 1.28 271.01 0.61L271.01 0.61L271.01 0.61Q269.70-0.06 268.99-1.15L268.99-1.15L268.99-1.15Q267.84-2.82 267.84-5.95L267.84-5.95L267.84-5.95Q267.84-7.81 268.86-12.93L268.86-12.93L269.76-17.79L269.76-17.79Q270.85-23.36 270.85-25.41L270.85-25.41L270.85-25.41Q270.85-28.99 268.86-28.99L268.86-28.99L268.86-28.99Q266.37-28.99 264.77-25.34L264.77-25.34L264.77-25.34Q264.13-23.94 263.68-21.82L263.68-21.82L259.33 0L246.46 1.28L255.49-44.80L268.35-46.08L267.84-43.52L267.84-43.52Q266.05-33.66 264.51-30.34L264.51-30.34L264.51-30.34Q268.10-33.92 274.69-33.92L274.69-33.92L274.69-33.92Q281.66-33.92 282.94-29.31L282.94-29.31L282.94-29.31Q283.39-27.84 283.39-26.56L283.39-26.56L283.39-26.56Q283.39-25.28 283.30-24.29L283.30-24.29L283.30-24.29Q283.20-23.30 282.88-21.50L282.88-21.50L282.05-16.90L280.58-9.66L280.58-9.66Q280.26-8.19 280.26-7.10ZM302.27 1.28L302.27 1.28L302.27 1.28Q288.19 1.28 288.19-11.97L288.19-11.97L288.19-11.97Q288.19-21.38 293.38-27.46L293.38-27.46L293.38-27.46Q298.88-33.92 308.42-33.92L308.42-33.92L308.42-33.92Q315.33-33.92 318.85-30.72L318.85-30.72L318.85-30.72Q322.37-27.52 322.37-20.80L322.37-20.80L322.37-20.80Q322.37-10.56 316.86-4.61L316.86-4.61L316.86-4.61Q311.49 1.28 302.27 1.28ZM303.94-26.56L303.94-26.56L303.94-26.56Q303.17-24.83 302.56-22.24L302.56-22.24L302.56-22.24Q301.95-19.65 301.18-15.55L301.18-15.55L301.18-15.55Q300.42-11.46 300.42-6.40L300.42-6.40L300.42-6.40Q300.42-4.74 300.96-3.65L300.96-3.65L300.96-3.65Q301.50-2.56 302.98-2.56L302.98-2.56L302.98-2.56Q304.45-2.56 305.38-3.26L305.38-3.26L305.38-3.26Q306.30-3.97 307.01-5.63L307.01-5.63L307.01-5.63Q308.29-8.58 309.31-14.05L309.31-14.05L309.31-14.05Q310.34-19.52 310.43-21.89L310.43-21.89L310.43-21.89Q310.53-24.26 310.53-26.02L310.53-26.02L310.53-26.02Q310.53-27.78 310.02-28.93L310.02-28.93L310.02-28.93Q309.50-30.08 308.06-30.08L308.06-30.08L308.06-30.08Q306.62-30.08 305.66-29.18L305.66-29.18L305.66-29.18Q304.70-28.29 303.94-26.56ZM345.28-22.46L345.28-22.46L345.28-22.46Q346.18-24.83 346.18-26.88L346.18-26.88L346.18-26.88Q346.18-30.66 343.10-30.66L343.10-30.66L343.10-30.66Q341.50-30.66 340.19-29.22L340.19-29.22L340.19-29.22Q338.88-27.78 338.88-25.98L338.88-25.98L338.88-25.98Q338.88-24.70 339.90-23.68L339.90-23.68L339.90-23.68Q341.38-22.27 345.15-19.97L345.15-19.97L345.15-19.97Q348.93-17.66 350.37-15.78L350.37-15.78L350.37-15.78Q351.81-13.89 351.81-11.30L351.81-11.30L351.81-11.30Q351.81-8.70 350.56-6.34L350.56-6.34L350.56-6.34Q349.31-3.97 347.07-2.30L347.07-2.30L347.07-2.30Q342.27 1.28 334.59 1.28L334.59 1.28L334.59 1.28Q330.43 1.28 327.23-0.90L327.23-0.90L327.23-0.90Q324.03-3.01 324.03-5.50L324.03-5.50L324.03-5.50Q324.03-8 325.86-9.47L325.86-9.47L325.86-9.47Q327.68-10.94 330.37-10.94L330.37-10.94L330.37-10.94Q333.06-10.94 334.72-9.92L334.72-9.92L334.72-9.92Q333.89-7.81 333.89-6.40L333.89-6.40L333.89-6.40Q333.89-2.18 337.47-2.18L337.47-2.18L337.47-2.18Q339.01-2.18 340.03-3.14L340.03-3.14L340.03-3.14Q341.06-4.10 341.06-5.76L341.06-5.76L341.06-5.76Q341.06-9.02 335.55-12.48L335.55-12.48L335.55-12.48Q331.07-15.42 330.05-16.58L330.05-16.58L330.05-16.58Q328.32-18.62 328.32-21.18L328.32-21.18L328.32-21.18Q328.32-23.74 329.54-26.18L329.54-26.18L329.54-26.18Q330.75-28.61 332.99-30.34L332.99-30.34L332.99-30.34Q337.66-33.92 345.79-33.92L345.79-33.92L345.79-33.92Q349.95-33.92 352.42-32.26L352.42-32.26L352.42-32.26Q354.88-30.59 354.88-27.78L354.88-27.78L354.88-27.78Q354.88-24.96 353.18-23.36L353.18-23.36L353.18-23.36Q351.49-21.76 348.42-21.76L348.42-21.76L348.42-21.76Q346.30-21.76 345.28-22.46ZM389.44-7.10L389.44-7.10L389.44-7.10Q389.44-4.29 392.32-3.46L392.32-3.46L392.32-3.46Q391.62-1.09 388.86 0.19L388.86 0.19L388.86 0.19Q386.56 1.28 384.03 1.28L384.03 1.28L384.03 1.28Q381.50 1.28 380.19 0.61L380.19 0.61L380.19 0.61Q378.88-0.06 378.18-1.15L378.18-1.15L378.18-1.15Q377.02-2.82 377.02-5.95L377.02-5.95L377.02-5.95Q377.02-7.81 378.05-12.93L378.05-12.93L378.94-17.79L378.94-17.79Q380.03-23.36 380.03-25.41L380.03-25.41L380.03-25.41Q380.03-28.99 378.05-28.99L378.05-28.99L378.05-28.99Q375.55-28.99 373.95-25.34L373.95-25.34L373.95-25.34Q373.31-23.94 372.86-21.82L372.86-21.82L368.51 0L355.65 1.28L364.67-44.80L377.54-46.08L377.02-43.52L377.02-43.52Q375.23-33.66 373.70-30.34L373.70-30.34L373.70-30.34Q377.28-33.92 383.87-33.92L383.87-33.92L383.87-33.92Q390.85-33.92 392.13-29.31L392.13-29.31L392.13-29.31Q392.58-27.84 392.58-26.56L392.58-26.56L392.58-26.56Q392.58-25.28 392.48-24.29L392.48-24.29L392.48-24.29Q392.38-23.30 392.06-21.50L392.06-21.50L391.23-16.90L389.76-9.66L389.76-9.66Q389.44-8.19 389.44-7.10Z" fill="#ccc"></path></g></g><style>text {
  font-size: 64px;
  font-family: Arial Black;
  dominant-baseline: central;
  text-anchor: middle;
}</style></svg>